<svg width="24" height="24" viewBox="0 0 24 24" fill="none" xmlns="http://www.w3.org/2000/svg">
<path d="M20.4054 3.5875C18.1607 1.3425 15.1714 0.0675 11.9946 0.0675C5.4375 0.0675 0.0964286 5.4075 0.0964286 11.9675C0.0964286 14.0475 0.651429 16.0725 1.70893 17.8275L0 24L6.30536 22.32C8.00893 23.2875 9.975 23.8125 11.9893 23.8125H11.9946C18.5464 23.8125 24 18.4725 24 11.9125C24 8.73 22.65 5.8325 20.4054 3.5875ZM11.9946 21.8025C10.2107 21.8025 8.46429 21.3 6.93214 20.3475L6.57857 20.13L2.84893 21.1275L3.85714 17.4825L3.61607 17.1075C2.56607 15.5175 2.01429 13.7775 2.01429 11.9675C2.01429 6.525 6.55714 2.0775 12 2.0775C14.6679 2.0775 17.1696 3.15 19.0607 5.0475C20.9518 6.945 22.0875 9.4425 22.0821 11.9125C22.0821 17.3625 17.4321 21.8025 11.9946 21.8025ZM17.4161 14.4975C17.1161 14.3475 15.6589 13.6275 15.3804 13.5225C15.1018 13.4175 14.8982 13.365 14.6946 13.6725C14.4911 13.98 13.9232 14.6475 13.7411 14.85C13.5589 15.0525 13.3768 15.0825 13.0768 14.9325C12.7768 14.7825 11.8286 14.4675 10.7304 13.485C9.87321 12.72 9.30536 11.7825 9.12321 11.475C8.94107 11.1675 9.1125 11.0025 9.24107 10.8375C9.67321 10.2525 10.1054 9.63 10.2107 9.435C10.3161 9.24 10.2696 9.045 10.1946 8.8875C10.1196 8.73 9.55714 7.2675 9.3 6.6675C9.05357 6.0825 8.79107 6.165 8.59821 6.1575C8.41607 6.15 8.2125 6.15 8.00893 6.15C7.80536 6.15 7.47857 6.225 7.2 6.5325C6.92143 6.84 6.15 7.56 6.15 9.0225C6.15 10.485 7.23214 11.8875 7.38214 12.0975C7.53214 12.3075 9.29464 15.105 12.0643 16.3875C12.8464 16.7325 13.4571 16.9425 13.9339 17.1C14.7375 17.3625 15.4661 17.325 16.0393 17.25C16.6714 17.1675 17.865 16.53 18.1232 15.8325C18.3814 15.135 18.3814 14.535 18.3064 14.4075C18.2314 14.28 18.0214 14.2125 17.7214 14.0625L17.4161 14.4975Z" fill="#25D366"/>
</svg>